<?xml version="1.0" encoding="utf-8"?>
<!-- Generator: Adobe Illustrator 14.0.0, SVG Export Plug-In . SVG Version: 6.00 Build 43363)  -->
<!DOCTYPE svg PUBLIC "-//W3C//DTD SVG 1.0//EN" "http://www.w3.org/TR/2001/REC-SVG-20010904/DTD/svg10.dtd">
<svg version="1.0" id="Ebene_1" xmlns="http://www.w3.org/2000/svg" xmlns:xlink="http://www.w3.org/1999/xlink" x="0px" y="0px"
	 width="180px" height="180px" viewBox="0 0 180 180" enable-background="new 0 0 180 180" xml:space="preserve">
<g>
	<rect x="-7.5" y="-6" fill="#97BF0D" stroke="#FFFFFF" width="195" height="192"/>
	<g id="XMLID_1_">
		<g>
			<path fill="#FAFAF7" d="M151.15,89.83c0,32.58-26.453,59.014-59.092,59.014c-32.634,0-59.09-26.434-59.09-59.014
				c0-32.599,26.457-59.019,59.09-59.019C124.697,30.811,151.15,57.231,151.15,89.83z"/>
		</g>
		<g>
		</g>
	</g>
	<g>
		<path fill="#97BF0D" stroke="#97BF0D" stroke-width="2" d="M75.307,136.721c-25.604-14.928-39.491-47.487-38.093-80.364
			c-0.675,1.618-1.274,3.263-1.832,4.948c0.012,8.5,1.042,18.565,3.108,26.716c5.629,22.146,18.419,40.037,36.022,50.271
			c9.296,5.412,19.449,8.424,29.865,9.033c1.913-0.48,3.765-1.039,5.584-1.68C97.855,145.902,85.992,142.929,75.307,136.721z"/>
	</g>
	<g>
		<path fill="#97BF0D" stroke="#97BF0D" stroke-width="2" d="M134.732,130.591c-25.91-8.932-43.46-35.092-40.856-62.631
			c1.261-13.407,7.088-25.568,16.386-34.622c-0.595-0.196-1.211-0.384-1.812-0.559c-9.213,9.262-14.985,21.519-16.254,35.025
			c-1.401,15.047,2.908,30.145,12.17,42.535c7.464,9.984,17.59,17.468,29.077,21.592
			C133.87,131.482,134.305,131.038,134.732,130.591z"/>
	</g>
	<path fill="#FFFFFF" d="M66.934,36.086"/>
	<path fill="#97BF0D" stroke="#97BF0D" stroke-width="2" d="M77.179,111.862C59.32,88.76,57.094,56.54,68.98,28.217
		c-0.801,0.343-1.564,0.706-2.33,1.102c-3.092,7.732-5.181,15.826-6.177,24.069c-2.681,22.104,2.797,43.306,15.428,59.633
		c11.212,14.522,27.147,23.906,45.167,27.057c0.746-0.461,1.497-0.938,2.224-1.429C104.845,135.938,88.551,126.603,77.179,111.862z"
		/>
	<g>
		<path fill="#97BF0D" stroke="#97BF0D" stroke-width="2" d="M131.382,44.56c0.999,0.517,1.95,1.048,2.881,1.587"/>
		<path fill="#97BF0D" stroke="#97BF0D" stroke-width="2" d="M134.259,46.261l0.004-0.114c-0.931-0.539-1.882-1.07-2.881-1.587
			c-7.614,0.003-15.261,0.996-22.819,2.975c-8.417,2.221-16.539,5.592-24.092,10.073c-15.702,9.254-28.169,22.609-36.072,38.567
			c-4.454,8.989-7.225,18.326-8.283,27.819c0.527,0.881,1.066,1.715,1.635,2.537c0.822-10.152,3.614-20.111,8.363-29.682
			C65.634,65.418,99.469,45.096,134.259,46.261z"/>
	</g>
	<g>
		<path fill="#97BF0D" stroke="#97BF0D" stroke-width="2" d="M108.465,79.902c6.882-11.298,17.344-19.685,29.618-23.851
			c-0.316-0.481-0.649-0.951-0.992-1.416c-12.454,4.34-23.044,12.914-30.074,24.403c-6.52,10.718-9.512,23.063-8.661,35.758
			c0.771,11.127,4.389,21.661,10.578,30.758c0.521-0.196,1.067-0.368,1.618-0.583C97.21,125.595,96.276,99.861,108.465,79.902z"/>
	</g>
	<path fill="none" stroke="#FFFFFF" stroke-width="2" d="M152,89.488c0,33.134-26.866,60-60,60c-33.135,0-60-26.866-60-60
		c0-33.14,26.865-60,60-60C125.134,29.488,152,56.348,152,89.488z"/>
</g>
</svg>
